<svg xmlns="http://www.w3.org/2000/svg" viewBox="0 0 500 500"><g id="freepik--Floor--inject-14"><ellipse id="freepik--floor--inject-14" cx="252.66" cy="338.39" rx="236.67" ry="136.64" style="fill:#f5f5f5"></ellipse></g><g id="freepik--Shadows--inject-14"><ellipse id="freepik--Shadow--inject-14" cx="371.11" cy="375.13" rx="60.64" ry="35.01" style="fill:#e6e6e6"></ellipse><path id="freepik--shadow--inject-14" d="M291,374.78l-96,55.44a8.13,8.13,0,0,1-7.35,0l-96-55.44c-2-1.17-2-3.07,0-4.24l96-55.44a8.13,8.13,0,0,1,7.35,0l96,55.44C293,371.71,293,373.61,291,374.78Z" style="fill:#e0e0e0"></path></g><g id="freepik--Cloud--inject-14"><g id="freepik--Clouds--inject-14"><path d="M117.89,65.86l-4.24,1.42V59.19c0-6.41-5.91-7.95-12.32-4.75h0c-6.41,3.21-11.61,11-11.61,17.42V73a7,7,0,0,0-5.38.72h0C79.72,76.06,76,81.67,76,86.28v.54l-5.91,3c-3,1.52-5.5,5.22-5.5,8.25s2.46,4.27,5.5,2.75l47.82-23.9c3-1.52,5.5-5.22,5.5-8.26S120.93,64.34,117.89,65.86Z" style="fill:#ebebeb"></path><path d="M172.26,89.08l-7.68,3.84c0-.3.06-.59.06-.88V90.11c0-3.43-2.78-4.82-6.21-3.1a11.44,11.44,0,0,0-3.71,3.08c-.56-4.31-4.47-5.92-9.21-3.55-5.14,2.57-9.3,8.81-9.3,13.94v2.89a6.76,6.76,0,0,0,.79,3.34l-6.38,3.19a6.48,6.48,0,0,0-3.45,5.17c0,1.9,1.54,2.68,3.45,1.72L172.26,96a6.48,6.48,0,0,0,3.45-5.17C175.71,88.9,174.16,88.13,172.26,89.08Z" style="fill:#ebebeb"></path></g></g><g id="freepik--Plants--inject-14"><path d="M398.78,345.76s1.12-26.18,12.09-40.74,24.42-16.66,31.1-12.56c4.86,3,4.21,11.85-4.22,17.65s-24.65,20.52-27.19,30.15Z" style="fill:#92E3A9"></path><path d="M398.78,345.76s1.12-26.18,12.09-40.74,24.42-16.66,31.1-12.56c4.86,3,4.21,11.85-4.22,17.65s-24.65,20.52-27.19,30.15Z" style="opacity:0.15"></path><path d="M406,341.94a.66.66,0,0,0,.63-.7C405.49,317.49,426.32,302.68,432,300a.69.69,0,0,0,.32-.91.67.67,0,0,0-.9-.32c-5.82,2.74-27.3,18-26.13,42.51a.68.68,0,0,0,.71.65Z" style="fill:#fff"></path><path d="M404,337.49c1.52-.21,3-.48,4-1.59,1.28-1.41,1.17-3.55,1.76-5.35,1-3,3.88-5,6.93-5.61a20.9,20.9,0,0,1,9.25.63c6.11,1.5,12-2.26,18.11-1.82a12.28,12.28,0,0,1,6.2,1.94,6.64,6.64,0,0,1,3,5.56,7.14,7.14,0,0,1-2.53,4.71,20.78,20.78,0,0,1-4.64,2.9l-5.37,2.74a9.67,9.67,0,0,0-2.5,1.62,7.1,7.1,0,0,0-1.87,5.72c.41,2.06,2.09,3.66,2.59,5.69.66,2.66-1,5.51-3.31,6.95a13.62,13.62,0,0,1-8,1.56c-2.74-.16-5.46-.71-8.2-.76a9.83,9.83,0,0,0-5.35,1.16,9.94,9.94,0,0,0-3.76,5.47,14.61,14.61,0,0,1-1.68,4,7.8,7.8,0,0,1-3.65,2.54,12.41,12.41,0,0,1-8.56,0c-2.26-.87-3.37-3.43-4.22-5.64a19.66,19.66,0,0,1-1.19-7.24,46.29,46.29,0,0,1,4.22-18.38c1.27-2.66,3.12-5.31,5.92-6.23A17.61,17.61,0,0,1,404,337.49Z" style="fill:#92E3A9"></path><path d="M398.05,366a.59.59,0,0,0,.57-.4c6.39-18.33,36.64-34.28,47.7-36.11a.6.6,0,1,0-.19-1.19c-11.27,1.86-42.12,18.16-48.65,36.9a.61.61,0,0,0,.37.77Z" style="fill:#fff"></path><path d="M425.24,355.92a.6.6,0,0,0,.48-.24.61.61,0,0,0-.12-.85,30.5,30.5,0,0,0-16.8-5.39h0a.6.6,0,1,0,0,1.2,29.87,29.87,0,0,1,16.09,5.15A.58.58,0,0,0,425.24,355.92Z" style="fill:#fff"></path></g><g id="freepik--Box--inject-14"><g id="freepik--box--inject-14"><g id="freepik--back-box--inject-14"><polygon points="97.83 372.49 191.25 318.55 284.68 372.49 191.25 426.43 97.83 372.49" style="fill:#92E3A9"></polygon><polygon points="97.83 372.49 191.25 318.55 284.68 372.49 191.25 426.43 97.83 372.49" style="opacity:0.25"></polygon><polygon points="191.25 318.55 191.25 226.31 95.93 281.34 175.68 327.54 191.25 318.55" style="fill:#37474f"></polygon><polygon points="191.25 226.31 191.25 318.55 206.83 327.54 286.58 281.34 191.25 226.31" style="fill:#263238"></polygon><polygon points="191.25 226.31 221.85 239.28 317.18 294.32 286.58 281.34 191.25 226.31" style="fill:#455a64"></polygon><polygon points="191.25 226.31 164.72 236.94 69.39 291.97 95.93 281.34 191.25 226.31" style="fill:#455a64"></polygon><polygon points="191.25 226.31 95.42 280.25 69.39 291.97 95.93 281.34 191.25 226.31" style="fill:#fff;opacity:0.2"></polygon></g><g id="freepik--Things--inject-14"><circle cx="179.07" cy="326.26" r="12.13" style="fill:#92E3A9"></circle><circle cx="151.24" cy="308.83" r="11.72" transform="translate(-174.08 197.39) rotate(-45)" style="fill:#92E3A9"></circle><circle cx="151.24" cy="308.83" r="11.72" transform="translate(-174.08 197.39) rotate(-45)" style="opacity:0.4"></circle><circle cx="174.04" cy="275.62" r="16.67" transform="translate(-92.23 87.58) rotate(-22.5)" style="fill:#92E3A9"></circle><circle cx="174.04" cy="275.62" r="16.67" transform="translate(-92.23 87.58) rotate(-22.5)" style="fill:#fff;opacity:0.5"></circle><path d="M169.4,281.61c-7.94-5.74-8.59-17-2.38-21.11h0a16.67,16.67,0,1,0,23.69,15.12C190.08,283.65,177.33,287.36,169.4,281.61Z" style="fill:#92E3A9;opacity:0.30000000000000004"></path><path d="M169.4,281.61c-7.94-5.74-8.59-17-2.38-21.11h0a16.67,16.67,0,1,0,23.69,15.12C190.08,283.65,177.33,287.36,169.4,281.61Z" style="opacity:0.02"></path><path d="M193,265.48l19.27-6a6,6,0,0,1,5.29,1.19l14.32,12.09a6,6,0,0,1,1.62,5.18l-4.41,19.7a6,6,0,0,1-3.67,4l-19.27,6a6,6,0,0,1-5.29-1.19l-14.32-12.09a6,6,0,0,1-1.62-5.18l4.41-19.7A6,6,0,0,1,193,265.48Z" style="fill:#92E3A9"></path><path d="M193,265.48l19.27-6a6,6,0,0,1,5.29,1.19l14.32,12.09a6,6,0,0,1,1.62,5.18l-4.41,19.7a6,6,0,0,1-3.67,4l-19.27,6a6,6,0,0,1-5.29-1.19l-14.32-12.09a6,6,0,0,1-1.62-5.18l4.41-19.7A6,6,0,0,1,193,265.48Z" style="opacity:0.15"></path><path d="M233.59,277.47c.12-1.4-.87-2.14-2.36-1.67l-19.27,6a5.75,5.75,0,0,0-2.78,2.12,5.93,5.93,0,0,1,.46-.56l-18.93-16.34a5.55,5.55,0,0,1,2.32-1.56l19.26-6a6,6,0,0,1,5.3,1.19l14.32,12.09A6,6,0,0,1,233.59,277.47Z" style="fill:#92E3A9"></path><path d="M184.91,289.17a6,6,0,0,0,1.62,5.18l14.32,12.09a6,6,0,0,0,4.79,1.3c-1.35.2-2.14-.72-1.8-2.23l4.41-19.7a5.5,5.5,0,0,1,1.36-2.43L190.68,267a5.5,5.5,0,0,0-1.36,2.43Z" style="opacity:0.15"></path><path d="M131,272.84l16.63-2.11a5,5,0,0,1,4.15,1.74l9.94,12a5,5,0,0,1,.57,4.47l-6.49,15.46a5,5,0,0,1-3.59,2.72l-16.62,2.12a5,5,0,0,1-4.16-1.75l-9.93-12a5,5,0,0,1-.57-4.47l6.48-15.46A5,5,0,0,1,131,272.84Z" style="fill:#92E3A9"></path><g style="opacity:0.15"><path d="M131,272.84l16.63-2.11a5,5,0,0,1,4.15,1.74l9.94,12a5,5,0,0,1,.57,4.47l-6.49,15.46a5,5,0,0,1-3.59,2.72l-16.62,2.12a5,5,0,0,1-4.16-1.75l-9.93-12a5,5,0,0,1-.57-4.47l6.48-15.46A5,5,0,0,1,131,272.84Z"></path></g><path d="M120.92,291a5,5,0,0,0,.57,4.47l9.93,12a5,5,0,0,0,3.73,1.76c-1.13,0-1.64-.9-1.15-2.08l6.49-15.46A4.67,4.67,0,0,1,142,289.9l-13.08-16.12a4.61,4.61,0,0,0-1.47,1.79Z" style="opacity:0.2"></path><path d="M162.42,288.57c.3-1.13-.4-1.87-1.69-1.7L144.1,289a4.81,4.81,0,0,0-2.58,1.33,4.4,4.4,0,0,1,.46-.4L128.9,273.79a4.55,4.55,0,0,1,2.12-.93l16.62-2.12a5,5,0,0,1,4.16,1.75l9.94,12A5,5,0,0,1,162.42,288.57Z" style="fill:#92E3A9"></path><circle cx="242.89" cy="301.06" r="20.68" style="fill:#92E3A9"></circle><circle cx="242.89" cy="301.06" r="20.68" style="fill:#fff;opacity:0.5"></circle><path d="M237.12,308.5c-9.85-7.13-10.66-21.16-3-26.2h0a20.69,20.69,0,1,0,29.41,18.76C262.79,311,247,315.64,237.12,308.5Z" style="fill:#92E3A9;opacity:0.5"></path><path d="M175.33,279a22.73,22.73,0,1,1-25.12,20A22.73,22.73,0,0,1,175.33,279Z" style="fill:#92E3A9"></path><path d="M175.33,279a22.73,22.73,0,1,1-25.12,20A22.73,22.73,0,0,1,175.33,279Z" style="fill:#fff;opacity:0.7000000000000001"></path><path d="M180.2,308.83c-9,9.88-24.4,9-29,0h0A22.72,22.72,0,1,0,175.33,279C186.12,281.12,189.2,299,180.2,308.83Z" style="fill:#92E3A9;opacity:0.2"></path><path d="M182,316.09l12.3-16.39a6,6,0,0,1,5.06-2.16l19,1.47a6.11,6.11,0,0,1,4.41,3.3l8,18.84a6.07,6.07,0,0,1-.66,5.47L217.86,343a6.1,6.1,0,0,1-5.07,2.17l-19-1.48a6.09,6.09,0,0,1-4.4-3.3l-8-18.84A6.1,6.1,0,0,1,182,316.09Z" style="fill:#92E3A9"></path><g style="opacity:0.15"><path d="M182,316.09l12.3-16.39a6,6,0,0,1,5.06-2.16l19,1.47a6.11,6.11,0,0,1,4.41,3.3l8,18.84a6.07,6.07,0,0,1-.66,5.47L217.86,343a6.1,6.1,0,0,1-5.07,2.17l-19-1.48a6.09,6.09,0,0,1-4.4-3.3l-8-18.84A6.1,6.1,0,0,1,182,316.09Z"></path></g><path d="M189.42,340.4a6.09,6.09,0,0,0,4.4,3.3l19,1.48a6.18,6.18,0,0,0,4.72-1.78c-1,1-2.19.68-2.81-.77l-8-18.84a5.67,5.67,0,0,1-.32-2.81l-25.28-2.24a5.71,5.71,0,0,0,.32,2.82Z" style="opacity:0.15"></path><path d="M222.58,301.88c-.73-1.22-2-1.24-2.93,0l-12.3,16.39a5.92,5.92,0,0,0-1,3.4,6,6,0,0,1,0-.74l-25.28-2.24a5.66,5.66,0,0,1,1-2.66l12.29-16.38a6.09,6.09,0,0,1,5.07-2.17l19,1.47A6.11,6.11,0,0,1,222.58,301.88Z" style="fill:#92E3A9"></path></g><g id="freepik--front-box--inject-14"><polygon points="95.93 281.34 95.93 371.4 191.25 426.43 191.25 336.53 95.93 281.34" style="fill:#263238"></polygon><polygon points="95.93 281.34 65.6 323.71 160.93 378.9 191.25 336.53 95.93 281.34" style="fill:#455a64"></polygon><polygon points="65.6 323.71 160.4 376.4 191.25 336.53 160.93 378.9 65.6 323.71" style="fill:#fff;opacity:0.2"></polygon><polyline points="286.58 281.34 286.57 371.4 191.25 426.43 191.25 336.53" style="fill:#37474f"></polyline><polygon points="191.25 336.53 193.13 423 262.36 385.38 191.25 426.43 191.25 336.53" style="fill:#455a64"></polygon><polygon points="286.58 281.34 316.91 323.71 221.58 378.9 191.25 336.53 286.58 281.34" style="fill:#455a64"></polygon><g style="opacity:0.8"><path d="M216.84,402.81a.51.51,0,0,1-.51-.51V390.9a.51.51,0,0,1,1,0v11.4A.51.51,0,0,1,216.84,402.81Z" style="fill:#e0e0e0"></path><path d="M215.35,394.85a.5.5,0,0,1-.46-.71L216.7,390l2,2.33a.51.51,0,0,1-.77.67l-1-1.11-1.17,2.7A.5.5,0,0,1,215.35,394.85Z" style="fill:#e0e0e0"></path><path d="M221.55,400.13a.51.51,0,0,1-.51-.51v-11.4a.51.51,0,0,1,1,0v11.4A.51.51,0,0,1,221.55,400.13Z" style="fill:#e0e0e0"></path><path d="M220.06,392.17a.45.45,0,0,1-.2,0,.51.51,0,0,1-.27-.67l1.81-4.18,2,2.33a.51.51,0,0,1,0,.72.52.52,0,0,1-.72-.05l-1-1.11-1.16,2.69A.51.51,0,0,1,220.06,392.17Z" style="fill:#e0e0e0"></path></g><g style="opacity:0.8"><path d="M203.28,410.55a1.19,1.19,0,0,1-.56-.14,1.36,1.36,0,0,1-.61-1.22v-1.4a.51.51,0,1,1,1,0v1.4c0,.2.06.31.1.33s.15,0,.33-.08a3,3,0,0,0,.95-2.3V401.3a.51.51,0,1,1,1,0v5.84a3.87,3.87,0,0,1-1.44,3.17A1.6,1.6,0,0,1,203.28,410.55Z" style="fill:#e0e0e0"></path><path d="M197.92,405.85V405a14.4,14.4,0,0,1,6.51-11.27c1.83-1.06,3.59-1.22,4.93-.44s2.08,2.37,2.08,4.49V398Zm9.55-12.06a5.2,5.2,0,0,0-2.53.79,13.42,13.42,0,0,0-5.95,9.48l11.43-6.6a3.77,3.77,0,0,0-1.57-3.32A2.77,2.77,0,0,0,207.47,393.79Z" style="fill:#e0e0e0"></path></g></g></g></g><g id="freepik--Character--inject-14"><g id="freepik--character--inject-14"><g id="freepik--back-arm--inject-14"><path d="M347.34,178.8l-11.27-6.47,19-28.14-10.57-19s-22.65,32.2-27.22,43.67c-2.67,6.71-1.69,9.17,2.48,12.9,2.71,2.43,16.35,10.62,27.25,13.24" style="fill:#f28f8f"></path><g id="freepik--character-boy--inject-14"><path d="M369.06,111.38a22.45,22.45,0,0,0-10.92.32c-5.22,1.72-8.17,3.52-13.51,11.06-5.2,7.35-14.7,22.28-14.7,22.28A25.75,25.75,0,0,0,347,157.5l17.63-26.4Z" style="fill:#37474f"></path></g></g><g id="freepik--character--inject-14"><polygon points="366.12 360.66 354.16 361.07 353.56 339.39 366.12 338.98 366.12 360.66" style="fill:#ffa8a7"></polygon><path d="M354,357.38c-.62,0-1.12.9-2.49,2.38a26.14,26.14,0,0,1-7,5.06c-4.48,2.25-13.2,5.7-17.14,7.47-2.46,1.11-2.35,4.09.2,5.78s8.69,2.92,16.07,1.27c4-.9,9.26-4.62,12.57-4.42s9.52.16,12-1.53,1.47-5.29.78-8.38c-.76-3.38-1.7-8.64-2.82-8.41v1.16c-1.44,2.18-8.86,3.07-12,1.47Z" style="fill:#263238"></path><rect x="387.27" y="355.5" width="11.97" height="20.49" style="fill:#ffa8a7"></rect><path d="M387.27,370.08v-1.71c-1.15.49-3.81,10.65-8.55,15-3.78,3.44-8.93,7.42-10.24,11.25-1.36,4,7.17,6.2,10.7,5.58,4.1-.73,11.2-3.62,13-6.29s2.62-6.62,4.07-8.58,4.79-4.15,5.57-6.42c.43-1.24-.08-4-.69-6.28-.55-2.12-1.15-4.44-1.87-4.24,0,.25,0,1.3,0,1.3-.87,1-3.28,1.92-6,2C391.5,371.76,387.25,371.41,387.27,370.08Z" style="fill:#263238"></path><path d="M404.33,202.53c0,11.43-2,77.89-2,77.89.28,3.29,3.45,9.14,3.69,21,.36,17.18-6.25,64.34-6.25,64.34a15.73,15.73,0,0,1-13.33.26s-5.42-63.93-7.57-80.93c-1.87-14.83-5.05-55.14-5.05-55.14l-5.63,48.44a67.76,67.76,0,0,1,1.48,19c-.56,7.87-2.77,56.56-2.77,56.56s-5.63,3.82-13.82,1.06c0,0-8.44-69.42-8.58-76.63-.16-8.23,3.13-92.2,3.13-92.2Z" style="fill:#455a64"></path><path d="M373.8,229.93s-9.56-2.7-16.66-9.56c0,0,3.22,6,12.78,11.62l-1.28,42.3Z" style="opacity:0.2"></path><path d="M396.47,118.46a11,11,0,0,1,5.77,6A28.14,28.14,0,0,1,404,134.81v23.44l.34,44.28c-17.17,9.05-39,9.66-57.33-3.72,0,0,1-57,1-66.31,0-.43,0-.85,0-1.28.67-13.32,13.78-22.46,26.69-19.14l10.84,2.79,10.89,3.59Z" style="fill:#f0f0f0"></path><path d="M355,183.19l-7.64-4.39L347,195c1.31.31,2.61.59,3.92.83,12.21,2.24,26.48.32,31-7S355,183.19,355,183.19Z" style="fill:#f28f8f"></path><circle cx="365.74" cy="74.85" r="16.45" transform="translate(54.2 280.54) rotate(-45)" style="fill:#263238"></circle><path d="M394.17,86.54s-2.66,12.52-3.73,14.58a5.65,5.65,0,0,1-3.28,2.64l.19-8.8Z" style="fill:#263238"></path><path d="M390.83,68.61a6.19,6.19,0,0,1,5.11,1.79c2.19,2.25,1,9.27-1.77,16.14l-5,.58Z" style="fill:#263238"></path><path d="M387.65,87.12c1,.61,2.44-1.33,3.68-2.63s5.29-3.07,7.32,1.19-1.79,10.08-5,11.08c-5.5,1.72-6.32-1.8-6.32-1.8l-.41,20.44h0c-6.83,8.76-25.8,8-17.9-1.14l0-6s-5,.75-7.42.38c-4-.63-6.58-3.82-7.81-8.19-2-7-2.72-12.71-1.05-26.54,1.83-15.15,19.46-15.31,29-9.32S387.65,87.12,387.65,87.12Z" style="fill:#ffa8a7"></path><path d="M371.69,90.73l-.87,0a5.64,5.64,0,0,1-5.45-6.3,5.84,5.84,0,0,1,6.05-5h.27a5.86,5.86,0,0,1,5.78,5.28A5.64,5.64,0,0,1,371.69,90.73Zm-.6-10.34a4.69,4.69,0,0,0-4.74,5.51A4.81,4.81,0,0,0,371,89.77h.52a4.8,4.8,0,0,0,4.87-3.62A4.69,4.69,0,0,0,372,80.41Z" style="fill:#263238"></path><path d="M355.49,90.28l-.87,0A5.65,5.65,0,0,1,349.17,84a5.85,5.85,0,0,1,6.05-5h.28a5.84,5.84,0,0,1,5.77,5.27A5.65,5.65,0,0,1,355.49,90.28Zm-.59-10.35a4.7,4.7,0,0,0-4.75,5.51,4.81,4.81,0,0,0,4.67,3.87h.52a4.81,4.81,0,0,0,4.87-3.61A4.69,4.69,0,0,0,355.77,80Z" style="fill:#263238"></path><path d="M365.93,83.21a4.12,4.12,0,0,0-2.45-1,3,3,0,0,0-2.62.91l-.74-.59a3.89,3.89,0,0,1,3.44-1.27,5.06,5.06,0,0,1,3,1.22C366.83,82.74,366.13,83.4,365.93,83.21Z" style="fill:#263238"></path><rect x="382.49" y="78.71" width="0.95" height="12" transform="translate(288.15 465.3) rotate(-88.48)" style="fill:#263238"></rect><path d="M387.65,88.82c.5,0,2.43-3.19,3.68-4.33,1.74-1.58-.5-15.88-.5-15.88s1.67-3.56-1.68-7.24c-2.38-2.62-5-4.27-11.82-4.64-6-.32-12.38,1.57-18.25.1a13.28,13.28,0,0,0-4.28-.61,4.36,4.36,0,0,0-3.59,2.08,3.26,3.26,0,0,0,.4,3.54A2.93,2.93,0,0,0,348.15,64,3.75,3.75,0,0,0,350,67.91c1.31.79,2.37.37,3.74.53a10.46,10.46,0,0,1,2.34.9,30.86,30.86,0,0,0,7.17,1.59c6.44.78,16.47-.16,17.84-.34,1.87-.26,2.27,1.55,3.28,6.5C385.21,81.43,386,88.79,387.65,88.82Z" style="fill:#263238"></path><path d="M390.82,69.72l6.08-3.27a3.35,3.35,0,0,0-4.6-1.52A3.62,3.62,0,0,0,390.82,69.72Z" style="fill:#263238"></path><path d="M369.06,108.23s9-1.82,12.18-3.5a10.42,10.42,0,0,0,4.36-4.31,14.24,14.24,0,0,1-2.48,5.09c-2.31,2.95-14.06,5.12-14.06,5.12Z" style="fill:#f28f8f"></path><path d="M369.5,84.87A1.81,1.81,0,1,0,371.3,83,1.86,1.86,0,0,0,369.5,84.87Z" style="fill:#263238"></path><path d="M371.41,78l3.87,2.13a2.32,2.32,0,0,0-.9-3.08A2.16,2.16,0,0,0,371.41,78Z" style="fill:#263238"></path><path d="M369.87,97.36l-4.13,1.55a2.17,2.17,0,0,0,2.81,1.37A2.31,2.31,0,0,0,369.87,97.36Z" style="fill:#f28f8f"></path><path d="M353.89,79.54l3.53-2.71a2.14,2.14,0,0,0-3.07-.47A2.33,2.33,0,0,0,353.89,79.54Z" style="fill:#263238"></path><path d="M355,84.35a1.81,1.81,0,1,0,1.81-1.88A1.84,1.84,0,0,0,355,84.35Z" style="fill:#263238"></path><polygon points="364.42 83.38 363.82 94.26 358.14 92.32 364.42 83.38" style="fill:#f28f8f"></polygon></g><g id="freepik--Objects--inject-14"><circle cx="344.48" cy="172.61" r="9.49" style="fill:#92E3A9"></circle><circle cx="344.48" cy="172.61" r="9.49" style="opacity:0.4"></circle><path d="M369.05,133.33l-12.38-10.07a4.75,4.75,0,0,0-4.24-.68l-14.05,4.69a4.74,4.74,0,0,0-2.71,3.33l-2.53,15.75a4.74,4.74,0,0,0,1.53,4l12.38,10.07a4.78,4.78,0,0,0,4.24.68l14-4.69a4.76,4.76,0,0,0,2.71-3.33l2.53-15.75A4.74,4.74,0,0,0,369.05,133.33Z" style="fill:#92E3A9"></path><path d="M369.05,133.33l-12.38-10.07a4.75,4.75,0,0,0-4.24-.68l-14.05,4.69a4.74,4.74,0,0,0-2.71,3.33l-2.53,15.75a4.74,4.74,0,0,0,1.53,4l12.38,10.07a4.78,4.78,0,0,0,4.24.68l14-4.69a4.76,4.76,0,0,0,2.71-3.33l2.53-15.75A4.74,4.74,0,0,0,369.05,133.33Z" style="opacity:0.15"></path><path d="M335.73,130.24c.32-1.06,1.26-1.32,2.22-.53l12.39,10.07a4.64,4.64,0,0,1,1.42,2.37c-.05-.18-.11-.37-.18-.55l18.68-6.45a4.38,4.38,0,0,0-1.24-1.83l-12.38-10.06a4.7,4.7,0,0,0-4.23-.68l-14.06,4.68A4.77,4.77,0,0,0,335.73,130.24Z" style="fill:#92E3A9"></path><path d="M368.05,153.09a4.76,4.76,0,0,1-2.71,3.33l-14,4.69a4.79,4.79,0,0,1-3.9-.45c.93.53,1.78.09,2-1.12l2.53-15.75a4.34,4.34,0,0,0-.28-2.19l18.68-6.45a4.35,4.35,0,0,1,.29,2.19Z" style="opacity:0.2"></path><circle cx="333.17" cy="161.34" r="17.92" transform="translate(-14.06 289.65) rotate(-46.12)" style="fill:#92E3A9"></circle><circle cx="333.17" cy="161.34" r="17.92" transform="translate(-14.06 289.65) rotate(-46.12)" style="fill:#fff;opacity:0.7000000000000001"></circle><path d="M339.58,166.38c6.78-8.07,4.5-20-3-22.64h0a17.92,17.92,0,1,1-20.75,21.95C318.55,173.9,332.8,174.45,339.58,166.38Z" style="fill:#92E3A9;opacity:0.2"></path><path d="M384.27,171.66l-4.49-16.59a5.11,5.11,0,0,0-3.27-3.26l-15.24-4.74a5.11,5.11,0,0,0-4.46,1.2l-12.12,12.18a5.1,5.1,0,0,0-1.18,4.47L348,181.51a5.12,5.12,0,0,0,3.28,3.26l15.23,4.74a5.1,5.1,0,0,0,4.46-1.2l12.13-12.18A5.1,5.1,0,0,0,384.27,171.66Z" style="fill:#92E3A9"></path><path d="M371,188.31a5.1,5.1,0,0,1-4.46,1.2l-15.23-4.74a5.2,5.2,0,0,1-3.13-2.85c.48,1.06,1.5,1.2,2.43.27L362.69,170a4.65,4.65,0,0,0,1.13-2.09L384.21,174a4.75,4.75,0,0,1-1.12,2.09Z" style="opacity:0.2"></path><path d="M357.09,148c1-.73,1.93-.36,2.28.93l4.49,16.6a4.93,4.93,0,0,1-.26,3,3.72,3.72,0,0,0,.2-.59L384.19,174a4.82,4.82,0,0,0,.06-2.38l-4.49-16.59a5.09,5.09,0,0,0-3.27-3.26L361.25,147A5.14,5.14,0,0,0,357.09,148Z" style="fill:#92E3A9"></path><path d="M357.09,148c1-.73,1.93-.36,2.28.93l4.49,16.6a4.93,4.93,0,0,1-.26,3,3.72,3.72,0,0,0,.2-.59L384.19,174a4.82,4.82,0,0,0,.06-2.38l-4.49-16.59a5.09,5.09,0,0,0-3.27-3.26L361.25,147A5.14,5.14,0,0,0,357.09,148Z" style="fill:#fff;opacity:0.5"></path></g><g id="freepik--front-arm--inject-14"><path d="M370.22,192.45A200.25,200.25,0,0,1,340.11,194c-4.57-.15-9.05.08-13.87-1.44-12.91-4.07-12.49-14.72-10-15.14.66,1.26,1.67,2.14,5.09,2.36s7.3-.83,7.17-2.27c0-.58-2-2.14-2.4-2.62a15.16,15.16,0,0,1-2.05-2.67c-.66-1.2-1.63-3.82-.21-4.89,1.27-1,1-.75,3.31,1.12s4.87,2.84,7.85,5.74c2.63,2.55,3.76,3.55,6.93,4.81,3.44,1.37,6.68,1,16.22-.56,8.25-1.32,12.24-2.25,15.62-3.34,4.25-6.47,13.61-42.31,18.07-49.8,1.7-2.86,4.39-2.62,7.12-1.15a14.78,14.78,0,0,1,6.77,17.74c-1,3-2.28,6.94-3.79,11.82-4,13.05-8.95,24.77-16,33.66C382.52,191.72,374.84,191.91,370.22,192.45Z" style="fill:#ffa8a7"></path><path d="M363.76,192.39a15.25,15.25,0,0,0,6.24-4.66c1.38-1.63,4.16-3.43,5.66-4.94s2.2,1.58.68,3.89-3.46,5.6-1.13,5.23,9.83-2.43,12-6.11a6.22,6.22,0,0,1-.39,7.12c-2.74,3.7-9.71,9-36.12,2.81C350.65,195.73,360.36,193.89,363.76,192.39Z" style="fill:#f28f8f"></path><path d="M396.47,118.46c4.29.77,10,2.36,11.57,12.67s-10,35.63-10,35.63-7.68,3.24-18.86-6.71c0,0,7.33-26.67,9.95-33.34S396.47,118.46,396.47,118.46Z" style="fill:#37474f"></path></g></g></g></svg>